<svg width="38" height="38" viewBox="0 0 38 38" fill="none" xmlns="http://www.w3.org/2000/svg">
<path d="M23.7265 21.7778H22.8309L22.5135 21.4778C23.6245 20.2111 24.2933 18.5667 24.2933 16.7778C24.2933 12.7889 20.9944 9.55556 16.9245 9.55556C12.8546 9.55556 9.55566 12.7889 9.55566 16.7778C9.55566 20.7667 12.8546 24 16.9245 24C18.7497 24 20.4275 23.3444 21.7199 22.2556L22.026 22.5667V23.4444L27.6943 28.9889L29.3835 27.3333L23.7265 21.7778ZM16.9245 21.7778C14.1017 21.7778 11.823 19.5444 11.823 16.7778C11.823 14.0111 14.1017 11.7778 16.9245 11.7778C19.7473 11.7778 22.026 14.0111 22.026 16.7778C22.026 19.5444 19.7473 21.7778 16.9245 21.7778Z" fill="white"/>
</svg>
