<svg width="38" height="38" viewBox="0 0 38 38" fill="none" xmlns="http://www.w3.org/2000/svg">
<ellipse cx="26.1996" cy="11.8001" rx="3.6" ry="3.6" fill="#EB5757"/>
<path d="M26.5 16.3047V25H28V26.5H22C22 26.9141 21.9219 27.3008 21.7656 27.6602C21.6094 28.0195 21.3945 28.3398 21.1211 28.6211C20.8477 28.9023 20.5312 29.1172 20.1719 29.2656C19.8125 29.4141 19.4219 29.4922 19 29.5C18.5859 29.5 18.1992 29.4219 17.8398 29.2656C17.4805 29.1094 17.1602 28.8945 16.8789 28.6211C16.5977 28.3477 16.3828 28.0312 16.2344 27.6719C16.0859 27.3125 16.0078 26.9219 16 26.5H10V25H11.5V16C11.5 15.3125 11.5898 14.6484 11.7695 14.0078C11.9492 13.3672 12.1992 12.7695 12.5195 12.2148C12.8398 11.6602 13.2305 11.1563 13.6914 10.7031C14.1523 10.25 14.6602 9.85938 15.2148 9.53125C15.7695 9.20312 16.3672 8.94922 17.0078 8.76953C17.6484 8.58984 18.3125 8.5 19 8.5C20.0156 8.5 20.9844 8.69531 21.9062 9.08594C21.8281 9.33594 21.7656 9.58984 21.7188 9.84766C21.6719 10.1055 21.6445 10.3672 21.6367 10.6328C21.2227 10.4297 20.7969 10.2734 20.3594 10.1641C19.9219 10.0547 19.4688 10 19 10C18.1719 10 17.3945 10.1563 16.668 10.4688C15.9414 10.7812 15.3086 11.2109 14.7695 11.7578C14.2305 12.3047 13.8008 12.9414 13.4805 13.668C13.1602 14.3945 13 15.1719 13 16V25H25V16V15.9531C25 15.9375 24.9961 15.918 24.9883 15.8945C25.2305 16.0039 25.4766 16.0898 25.7266 16.1523C25.9766 16.2148 26.2344 16.2656 26.5 16.3047ZM19 28C19.2109 28 19.4062 27.9609 19.5859 27.8828C19.7656 27.8047 19.9219 27.6992 20.0547 27.5664C20.1875 27.4336 20.2969 27.2734 20.3828 27.0859C20.4688 26.8984 20.5078 26.7031 20.5 26.5H17.5C17.5 26.7109 17.5391 26.9062 17.6172 27.0859C17.6953 27.2656 17.8008 27.4219 17.9336 27.5547C18.0664 27.6875 18.2266 27.7969 18.4141 27.8828C18.6016 27.9688 18.7969 28.0078 19 28Z" fill="white"/>
</svg>
