<svg width="50" height="41" viewBox="0 0 50 41" fill="none" xmlns="http://www.w3.org/2000/svg">
<path d="M34.375 8.0625C34.375 7.63932 34.5296 7.27311 34.8389 6.96387C35.1481 6.65462 35.5143 6.5 35.9375 6.5C36.3607 6.5 36.7269 6.65462 37.0361 6.96387C37.3454 7.27311 37.5 7.63932 37.5 8.0625C37.5 8.48568 37.3454 8.85189 37.0361 9.16113C36.7269 9.47038 36.3607 9.625 35.9375 9.625C35.5143 9.625 35.1481 9.47038 34.8389 9.16113C34.5296 8.85189 34.375 8.48568 34.375 8.0625ZM50 31.5V34.625H43.75V40.875H40.625V34.625H34.375V31.5H40.625V25.25H43.75V31.5H50ZM22.5098 23.6875L31.25 32.4033V34.625H0V0.25H43.75V22.125H40.625V3.375H3.125V13.6533L7.8125 8.99023L20.3125 21.4902L26.5625 15.2402L37.5 26.1533V28.375H35.2783L26.5625 19.6348L22.5098 23.6875ZM7.8125 13.3848L3.125 18.0967V31.5H25.9033L7.8125 13.3848Z" fill="#575757"/>
</svg>
