<svg width="47" height="44" viewBox="0 0 47 44" fill="none" xmlns="http://www.w3.org/2000/svg">
<path d="M40.75 34.625H47V37.75H40.75V44H37.625V37.75H31.375V34.625H37.625V28.375H40.75V34.625ZM34.5 25.25V28.375H28.25V37.75H0.125V0.25H40.75V25.25H37.625V19H28.25V25.25H34.5ZM37.625 15.875V9.625H28.25V15.875H37.625ZM12.625 34.625V28.375H3.25V34.625H12.625ZM12.625 25.25V19H3.25V25.25H12.625ZM12.625 15.875V9.625H3.25V15.875H12.625ZM25.125 34.625V28.375H15.75V34.625H25.125ZM25.125 25.25V19H15.75V25.25H25.125ZM25.125 15.875V9.625H15.75V15.875H25.125ZM3.25 6.5H37.625V3.375H3.25V6.5Z" fill="#A0A0A0"/>
</svg>
