<svg width="50" height="47" viewBox="0 0 50 47" fill="none" xmlns="http://www.w3.org/2000/svg">
<path d="M50.0001 9.50008V31.3751H46.8751V9.50008H29.6876C28.7761 9.50008 28.0437 9.57332 27.4903 9.71981C26.9369 9.86629 26.4649 10.0616 26.0743 10.3057C25.6837 10.5499 25.35 10.8022 25.0733 11.0626C24.7966 11.323 24.4955 11.5753 24.17 11.8194C23.8445 12.0636 23.4376 12.2507 22.9493 12.3809C22.461 12.5111 21.8425 12.5925 21.0938 12.6251H3.12508V34.5001H25.0001V37.6251H3.12508C2.68563 37.6251 2.27873 37.5437 1.90438 37.3809C1.53003 37.2182 1.20451 36.9985 0.927816 36.7218C0.651123 36.4451 0.423258 36.1114 0.244222 35.7208C0.0651855 35.3302 -0.0161947 34.9233 8.13804e-05 34.5001V3.25008C8.13804e-05 2.81063 0.0814616 2.40373 0.244222 2.02938C0.406982 1.65503 0.626709 1.32951 0.903402 1.05282C1.18009 0.776123 1.51375 0.548258 1.90438 0.369222C2.295 0.190186 2.7019 0.108805 3.12508 0.125081H21.0938C21.696 0.125081 22.2576 0.230876 22.7784 0.442464C23.2992 0.654053 23.7712 0.947021 24.1944 1.32137C24.6176 1.69572 25.0164 2.11076 25.3907 2.56649C25.7651 3.02222 26.0824 3.50236 26.3429 4.00692C26.5544 4.38127 26.7579 4.71492 26.9532 5.00789C27.1485 5.30086 27.3764 5.545 27.6368 5.74032C27.8972 5.93563 28.182 6.09025 28.4913 6.20418C28.8005 6.31812 29.1993 6.37508 29.6876 6.37508H46.8751C47.3145 6.37508 47.7214 6.45646 48.0958 6.61922C48.4701 6.78198 48.7957 7.00171 49.0723 7.2784C49.349 7.55509 49.5769 7.88875 49.7559 8.27938C49.935 8.67 50.0163 9.0769 50.0001 9.50008ZM21.0938 9.50008C21.5333 9.50008 21.8995 9.42684 22.1925 9.28036C22.4854 9.13387 22.7703 8.95483 23.047 8.74325C23.3236 8.53166 23.6003 8.30379 23.877 8.05965C24.1537 7.81551 24.4711 7.58765 24.8292 7.37606C24.585 7.09937 24.3328 6.73315 24.0723 6.27742C23.8119 5.8217 23.519 5.36597 23.1934 4.91024C22.8679 4.45451 22.5424 4.06388 22.2169 3.73836C21.8914 3.41284 21.517 3.25008 21.0938 3.25008H3.12508V9.50008H21.0938ZM40.6251 25.1251V34.5001H50.0001V37.6251H40.6251V47.0001H37.5001V37.6251H28.1251V34.5001H37.5001V25.1251H40.6251Z" fill="#A0A0A0"/>
</svg>
