<svg width="50" height="47" viewBox="0 0 50 47" fill="none" xmlns="http://www.w3.org/2000/svg">
<path d="M18.75 18.75H21.875V21.875H18.75V18.75ZM28.125 37.5H31.25V40.625H28.125V37.5ZM37.5 18.75H40.625V21.875H37.5V18.75ZM28.125 18.75H31.25V21.875H28.125V18.75ZM18.75 25H21.875V28.125H18.75V25ZM9.375 25H12.5V28.125H9.375V25ZM37.5 25H40.625V28.125H37.5V25ZM28.125 25H31.25V28.125H28.125V25ZM18.75 31.25H21.875V34.375H18.75V31.25ZM9.375 31.25H12.5V34.375H9.375V31.25ZM37.5 31.25H40.625V34.375H37.5V31.25ZM28.125 31.25H31.25V34.375H28.125V31.25ZM18.75 37.5H21.875V40.625H18.75V37.5ZM9.375 37.5H12.5V40.625H9.375V37.5ZM50 3.125V46.875H0V3.125H9.375V0H12.5V3.125H37.5V0H40.625V3.125H50ZM3.125 6.25V12.5H46.875V6.25H40.625V9.375H37.5V6.25H12.5V9.375H9.375V6.25H3.125ZM46.875 43.75V15.625H3.125V43.75H46.875Z" fill="#A0A0A0"/>
</svg>
