<svg width="14" height="20" viewBox="0 0 14 20" fill="none" xmlns="http://www.w3.org/2000/svg">
<path d="M8.70703 9.55859C9.42578 9.55859 10.1016 9.69531 10.7344 9.96875C11.3672 10.2422 11.9219 10.6133 12.3984 11.082C12.875 11.5508 13.25 12.1055 13.5234 12.7461C13.7969 13.3867 13.9336 14.0625 13.9336 14.7734C13.9336 15.4922 13.7969 16.168 13.5234 16.8008C13.25 17.4336 12.8789 17.9883 12.4102 18.4648C11.9414 18.9414 11.3867 19.3164 10.7461 19.5898C10.1055 19.8633 9.42578 20 8.70703 20H0V0.5H8.70703C9.33203 0.5 9.91797 0.617188 10.4648 0.851562C11.0117 1.08594 11.4883 1.41016 11.8945 1.82422C12.3008 2.23828 12.625 2.71875 12.8672 3.26562C13.1094 3.8125 13.2305 4.39844 13.2305 5.02344C13.2305 5.64844 13.1133 6.23438 12.8789 6.78125C12.6445 7.32812 12.3242 7.80859 11.918 8.22266C11.5117 8.63672 11.0312 8.96094 10.4766 9.19531C9.92188 9.42969 9.33203 9.55078 8.70703 9.55859ZM6.26953 3.28906H4.5V8.85547H6.26953C6.65234 8.85547 7.01172 8.78125 7.34766 8.63281C7.68359 8.48438 7.98047 8.28516 8.23828 8.03516C8.49609 7.78516 8.69531 7.49219 8.83594 7.15625C8.97656 6.82031 9.05078 6.45703 9.05859 6.06641C9.05859 5.68359 8.98438 5.32422 8.83594 4.98828C8.6875 4.65234 8.48828 4.35938 8.23828 4.10938C7.98828 3.85938 7.69531 3.66016 7.35938 3.51172C7.02344 3.36328 6.66016 3.28906 6.26953 3.28906ZM6.96094 17.2109C7.34375 17.2109 7.70312 17.1406 8.03906 17C8.375 16.8594 8.67188 16.6602 8.92969 16.4023C9.1875 16.1445 9.38672 15.8477 9.52734 15.5117C9.66797 15.1758 9.74219 14.8164 9.75 14.4336C9.75 14.0508 9.67969 13.6914 9.53906 13.3555C9.39844 13.0195 9.19922 12.7227 8.94141 12.4648C8.68359 12.207 8.38672 12.0078 8.05078 11.8672C7.71484 11.7266 7.35156 11.6523 6.96094 11.6445H4.5V17.2109H6.96094Z" fill="#88848D"/>
</svg>
