<svg width="50" height="41" viewBox="0 0 50 41" fill="none" xmlns="http://www.w3.org/2000/svg">
<path d="M18.75 20.6875C18.75 21.7617 18.9535 22.7708 19.3604 23.7148C19.7673 24.6589 20.3206 25.4889 21.0205 26.2051C21.7204 26.9212 22.5505 27.4827 23.5107 27.8896C24.471 28.2965 25.4883 28.5 26.5625 28.5H31.25V31.625H26.5625C25.0488 31.625 23.6328 31.3402 22.3145 30.7705C20.9961 30.2008 19.8405 29.4196 18.8477 28.4268C17.8548 27.4339 17.0736 26.2783 16.5039 24.96C15.9342 23.6416 15.6413 22.2174 15.625 20.6875C15.625 19.1738 15.9098 17.7578 16.4795 16.4395C17.0492 15.1211 17.8304 13.9655 18.8232 12.9727C19.8161 11.9798 20.9717 11.1986 22.29 10.6289C23.6084 10.0592 25.0326 9.76628 26.5625 9.75H28.125V12.875H26.5625C25.4883 12.875 24.4792 13.0785 23.5352 13.4854C22.5911 13.8923 21.7611 14.4538 21.0449 15.1699C20.3288 15.8861 19.7673 16.7161 19.3604 17.6602C18.9535 18.6042 18.75 19.6133 18.75 20.6875ZM37.5 12.875V9.75H39.0625C40.5762 9.75 41.9922 10.0348 43.3105 10.6045C44.6289 11.1742 45.7845 11.9554 46.7773 12.9482C47.7702 13.9411 48.5514 15.0967 49.1211 16.415C49.6908 17.7334 49.9837 19.1576 50 20.6875C50 22.1198 49.7314 23.4951 49.1943 24.8135C48.6572 26.1318 47.8841 27.3037 46.875 28.3291V20.6875C46.875 19.6133 46.6716 18.6042 46.2646 17.6602C45.8577 16.7161 45.2962 15.8942 44.5801 15.1943C43.8639 14.4945 43.0339 13.9329 42.0898 13.5098C41.1458 13.0866 40.1367 12.875 39.0625 12.875H37.5ZM23.4375 0.375C24.9512 0.375 26.3672 0.659831 27.6855 1.22949C29.0039 1.79915 30.1595 2.5804 31.1523 3.57324C32.1452 4.56608 32.9264 5.72168 33.4961 7.04004C34.0658 8.3584 34.3587 9.78255 34.375 11.3125C34.375 12.8262 34.0902 14.2422 33.5205 15.5605C32.9508 16.8789 32.1696 18.0345 31.1768 19.0273C30.1839 20.0202 29.0283 20.8014 27.71 21.3711C26.3916 21.9408 24.9674 22.2337 23.4375 22.25H21.875V19.125H23.4375C24.5117 19.125 25.5208 18.9215 26.4648 18.5146C27.4089 18.1077 28.2308 17.5544 28.9307 16.8545C29.6305 16.1546 30.1921 15.3245 30.6152 14.3643C31.0384 13.404 31.25 12.3867 31.25 11.3125C31.25 10.2383 31.0465 9.22917 30.6396 8.28516C30.2327 7.34115 29.6712 6.51921 28.9551 5.81934C28.2389 5.11947 27.4089 4.55794 26.4648 4.13477C25.5208 3.71159 24.5117 3.5 23.4375 3.5H10.9375C9.86328 3.5 8.85417 3.70345 7.91016 4.11035C6.96615 4.51725 6.13607 5.07878 5.41992 5.79492C4.70378 6.51107 4.14225 7.34115 3.73535 8.28516C3.32845 9.22917 3.125 10.2383 3.125 11.3125C3.125 12.3867 3.32845 13.3958 3.73535 14.3398C4.14225 15.2839 4.69564 16.1139 5.39551 16.8301C6.09538 17.5462 6.92546 18.1077 7.88574 18.5146C8.84603 18.9215 9.86328 19.125 10.9375 19.125H12.5V22.25H10.9375C9.42383 22.25 8.00781 21.9652 6.68945 21.3955C5.37109 20.8258 4.21549 20.0446 3.22266 19.0518C2.22982 18.0589 1.44857 16.9033 0.878906 15.585C0.309245 14.2666 0.016276 12.8424 0 11.3125C0 9.79883 0.284831 8.38281 0.854492 7.06445C1.42415 5.74609 2.2054 4.59049 3.19824 3.59766C4.19108 2.60482 5.34668 1.82357 6.66504 1.25391C7.9834 0.684245 9.40755 0.391276 10.9375 0.375H23.4375ZM50 31.625V34.75H43.75V41H40.625V34.75H34.375V31.625H40.625V25.375H43.75V31.625H50Z" fill="#575757"/>
</svg>
